<?xml version="1.0" encoding="UTF-8"?>
<svg width="307px" height="173px" viewBox="0 0 307 173" version="1.1" xmlns="http://www.w3.org/2000/svg" xmlns:xlink="http://www.w3.org/1999/xlink">
    <title>Path 13</title>
    <defs>
        <linearGradient x1="1.02817535e-14%" y1="62.0964305%" x2="100%" y2="62.0964305%" id="linearGradient-1">
            <stop stop-color="#FF000C" offset="0%"></stop>
            <stop stop-color="#FEF200" offset="100%"></stop>
        </linearGradient>
        <path d="M216.30372,0.0115143037 L288.481697,53.1858771 C295.110953,62.2185546 299.323018,68.5798131 301.117892,72.2696526 C305.1337,80.525209 305.166764,86.9512898 305.873269,91.4756195 C309.437607,114.301005 299.634815,130.915404 293.304521,138.892307 C287.650441,146.017102 275.586406,161.236104 256.055201,164.055186 C250.971975,164.788886 238.156648,165.834459 227.903711,164.055186 C222.909176,163.188446 215.753018,160.694685 206.435235,156.573906 L175.730268,130.012461 L175.751268,129.966461 L149.141268,107.011461 L175.730268,130.012461 L156.027623,172.93581 L109.339824,172.93581 L141.713268,100.603461 L141.705762,100.596708 L141.711268,100.583461 L101.965355,66.201429 L47.3151888,172.93581 L0.933268317,172.93581 L72.2977754,32.191292 C78.4276157,25.6807201 83.5976748,21.756357 87.8079528,20.4182026 C92.0182308,19.0800482 99.1955211,19.0800482 109.339824,20.4182026 L159.260268,61.373461 L159.26253,61.368701 L159.271268,61.376461 L162.795628,53.5028354 L180.640502,13.6331454 C186.059582,7.69995388 190.928517,3.9085735 195.247306,2.25900425 C199.566095,0.609434993 206.584899,-0.139728321 216.30372,0.0115143037 Z M212.918767,48.9993847 L194.112268,89.967461 L232.929989,121.815261 C240.471353,122.677768 245.6633,122.677768 248.505829,121.815261 C253.612722,120.265679 257.672112,115.248376 259.595502,112.940813 C261.712151,110.401391 264.054755,106.717213 264.196879,101.003295 C264.260112,98.4610788 263.51084,93.7933137 261.949063,87 L212.918767,48.9993847 Z M166.077268,66.967461 L194.102268,89.989461 L194.112268,89.967461 L166.077268,66.967461 Z" id="path-2"></path>
    </defs>
    <g id="irelia" stroke="none" stroke-width="1" fill="none" fill-rule="evenodd">
        <mask id="mask-3" fill="white">
            <use xlink:href="#path-2"></use>
        </mask>
        <use id="Path-13" fill="url(#linearGradient-1)" xlink:href="#path-2"></use>
    </g>
</svg>